{"title":"Sigma ft. Paloma Faith - Changing (2014.Drum and Bass)","uid":11102217,"size":91897342,"categoryP":"video","categoryS":"music_videos","magnet":"?xt=urn:btih:a9f0a9e8f2479eb2b1e80fb78a712b76d4597d90&amp;dn=Sigma+ft.+Paloma+Faith+-+Changing+%282014.Drum+and+Bass%29&amp;tr=udp%3A%2F%2Ftracker.openbittorrent.com%3A80&amp;tr=udp%3A%2F%2Fopen.demonii.com%3A1337&amp;tr=udp%3A%2F%2Ftracker.coppersurfer.tk%3A6969&amp;tr=udp%3A%2F%2Fexodus.desync.com%3A6969","seeders":0,"leechers":0,"uploader":"MeRaDil","files":-1,"time":1411683290,"description":"SIGMA ft.PALOMA FAITH - CHANGING\n\n\n\nMPEG4 MUSIC VID\n\n &lt;a href=&quot;\nhttp://gifyu.com/images/Sigma.png&quot; rel=&quot;nofollow&quot; target=&quot;_NEW&quot;&gt;\nhttp://gifyu.com/images/Sigma.png&lt;/a&gt;\n\n\nGeneral\nComplete name                            : Sigma ft. Paloma Faith - Changing\nFormat                                   : MPEG-4\nFormat profile                           : Base Media\nCodec ID                                 : isom\nFile size                                : 87.6 MiB\nDuration                                 : 3mn 28s\nOverall bit rate                         : 3 532 Kbps\nMovie name                               : Changing\nMovie name/More                          : Sigma &amp; Paloma Faith\nPerformer                                : Sigma ft. Paloma Faith\nGenre                                    : Drum and Bass\nContentType                              : Music Video\nRecorded date                            : 2014\nCopyright                                : Sigma\nCover                                    : Yes\nRating                                   : ***\nMake                                     : MeRaDil\noday                                     : 17-07-2014  UK\nlabl                                     : 3Beat\nrelease date                             : UK - july 17 - 2014\nPart_ID                                  : Changing\n\nVideo\nID                                       : 1\nFormat                                   : AVC\nFormat/Info                              : Advanced Video Codec\nFormat profile                           : &lt;a class=&quot;__cf_email__&quot; href=&quot;/cdn-cgi/l/email-protection&quot; data-cfemail=&quot;d49cbdb3bc9498e0fae4&quot;&gt;[email&amp;#160;protected]&lt;/a&gt;&lt;script data-cfhash='f9e31' type=&quot;text/javascript&quot;&gt;\n/* &lt;![CDATA[ */!function(){try{var t=&quot;currentScript&quot;in document?document.currentScript:function(){for(var t=document.getElementsByTagName(&quot;script&quot;),e=t.length;e--;)if(t[e].getAttribute(&quot;data-cfhash&quot;))return t[e]}();if(t&amp;&amp;t.previousSibling){var e,r,n,i,c=t.previousSibling,a=c.getAttribute(&quot;data-cfemail&quot;);if(a){for(e=&quot;&quot;,r=parseInt(a.substr(0,2),16),n=2;a.length-n;n+=2)i=parseInt(a.substr(n,2),16)^r,e+=String.fromCharCode(i);e=document.createTextNode(e),c.parentNode.replaceChild(e,c)}t.parentNode.removeChild(t);}}catch(u){}}()/* ]]&gt; */&lt;/script&gt;\nFormat settings, CABAC                   : Yes\nFormat settings, ReFrames                : 3 frames\nCodec ID                                 : avc1\nCodec ID/Info                            : Advanced Video Coding\nDuration                                 : 3mn 28s\nBit rate                                 : 3 270 Kbps\nWidth                                    : 1 920 pixels\nHeight                                   : 1 080 pixels\nDisplay aspect ratio                     : 16:9\nFrame rate mode                          : Constant\nFrame rate                               : 25.000 fps\nColor space                              : YUV\nChroma subsampling                       : 4:2:0\nBit depth                                : 8 bits\nScan type                                : Progressive\nBits/(Pixel*Frame)                       : 0.063\nStream size                              : 81.1 MiB (93%)\n\nAudio\nID                                       : 2\nFormat                                   : AAC\nFormat/Info                              : Advanced Audio Codec\nFormat profile                           : LC\nCodec ID                                 : 40\nDuration                                 : 3mn 28s\nBit rate mode                            : Constant\nBit rate                                 : 256 Kbps\nChannel(s)                               : 2 channels\nChannel positions                        : Front: L R\nSampling rate                            : 44.1 KHz\nCompression mode                         : Lossy\nStream size                              : 6.35 MiB (7%)\n &lt;a href=&quot;\nhttps://thepiratebay.se/user/MeRaDil&quot; rel=&quot;nofollow&quot; target=&quot;_NEW&quot;&gt;\nhttps://thepiratebay.se/user/MeRaDil&lt;/a&gt;\n\n:)","torrent":{"xt":"urn:btih:a9f0a9e8f2479eb2b1e80fb78a712b76d4597d90","amp;dn":"Sigma+ft.+Paloma+Faith+-+Changing+%282014.Drum+and+Bass%29","amp;tr":["udp%3A%2F%2Ftracker.openbittorrent.com%3A80","udp%3A%2F%2Fopen.demonii.com%3A1337","udp%3A%2F%2Ftracker.coppersurfer.tk%3A6969","udp%3A%2F%2Fexodus.desync.com%3A6969"],"infoHash":"a9f0a9e8f2479eb2b1e80fb78a712b76d4597d90","infoHashBuffer":{"type":"Buffer","data":[169,240,169,232,242,71,158,178,177,232,15,183,138,113,43,118,212,89,125,144]},"announce":[],"urlList":[]}}